# xmcd CD database file
#
# Track frame offsets:
#	150
#	14028
#	24355
#	38978
#	54428
#	64723
#	77923
#	101242
#	132651
#	153941
#	167897
#	180006
#	192405
#	206952
#	218046
#	236421
#	254527
#	268700
#	290817
#	304238
#
# Disc length: 4364 seconds
#
# Revision: 0
# Processed by: cddbd v1.5.2PL0 Copyright (c) Steve Scherf et al.
# Submitted via: CDex 1.51
#
DISCID=2c110a14
DTITLE=The Ladies in Jazz - CD3 - The Ladies in Jazz - CD3
DYEAR=1900
DGENRE=Jazz
TTITLE0=Black coffee-Ella Fitzgerald
TTITLE1=Lean baby-Dina Washington
TTITLE2=Who cares?-Anita O'Day
TTITLE3=Moonlight in Vermont-Betty Carter
TTITLE4=I didn't know wath time it was-Peggy Lee
TTITLE5=East of the sun-Billie Holliday
TTITLE6=I'am glad there is you-Sarah Vaughan
TTITLE7=Bye bye blues-Dina Washington
TTITLE8=No more blues-Carmen McRea
TTITLE9=Smooth sailing-Ella Fitzgerald
TTITLE10=Just a little bit south of north Carolina-Anita O'Day
TTITLE11=Easy living-Peggy Lee
TTITLE12=I can't face the music-Billie Holliday
TTITLE13=Can't we be friends?-Betty Carter
TTITLE14=When Malindy sings-Abbey Lincoln
TTITLE15=Lullabay of Birdland-Sarah Vaughan
TTITLE16=Don't get around much anymore-Dinah Washington
TTITLE17=Everything a good man needs-Carmen McRea
TTITLE18=It never entered my mind-Peggy Lee
TTITLE19=You"ll have to swing it
EXTD=
EXTT0=
EXTT1=
EXTT2=
EXTT3=
EXTT4=
EXTT5=
EXTT6=
EXTT7=
EXTT8=
EXTT9=
EXTT10=
EXTT11=
EXTT12=
EXTT13=
EXTT14=
EXTT15=
EXTT16=
EXTT17=
EXTT18=
EXTT19=
PLAYORDER=
